<svg width="238" height="45" viewBox="0 0 238 45" fill="none" xmlns="http://www.w3.org/2000/svg">
<g clip-path="url(#clip0)">
<path d="M11.0938 24.5625H5.5625V45H-0.4375V-0.5H5.5625V19.5625H10.25L26.1562 -0.5H33.625L16.25 21.5625L34.9062 45H27.5625L11.0938 24.5625ZM66.125 23.9688H46.4062V40.0938H69.3125V45H40.4062V-0.5H69V4.4375H46.4062V19.0625H66.125V23.9688ZM88.5938 24.5625H83.0625V45H77.0625V-0.5H83.0625V19.5625H87.75L103.656 -0.5H111.125L93.75 21.5625L112.406 45H105.062L88.5938 24.5625ZM150.375 30.5625C149.812 35.375 148.031 39.0938 145.031 41.7188C142.052 44.3229 138.083 45.625 133.125 45.625C127.75 45.625 123.438 43.6979 120.188 39.8438C116.958 35.9896 115.344 30.8333 115.344 24.375V20C115.344 15.7708 116.094 12.0521 117.594 8.84375C119.115 5.63542 121.26 3.17708 124.031 1.46875C126.802 -0.260417 130.01 -1.125 133.656 -1.125C138.49 -1.125 142.365 0.229167 145.281 2.9375C148.198 5.625 149.896 9.35417 150.375 14.125H144.344C143.823 10.5 142.688 7.875 140.938 6.25C139.208 4.625 136.781 3.8125 133.656 3.8125C129.823 3.8125 126.812 5.22917 124.625 8.0625C122.458 10.8958 121.375 14.9271 121.375 20.1562V24.5625C121.375 29.5 122.406 33.4271 124.469 36.3438C126.531 39.2604 129.417 40.7188 133.125 40.7188C136.458 40.7188 139.01 39.9688 140.781 38.4688C142.573 36.9479 143.76 34.3125 144.344 30.5625H150.375ZM187.281 -0.5H193.281V45H187.281V9.9375L164.875 45H158.844V-0.5H164.875V34.5625L187.281 -0.5ZM216.031 24.5625H210.5V45H204.5V-0.5H210.5V19.5625H215.188L231.094 -0.5H238.562L221.188 21.5625L239.844 45H232.5L216.031 24.5625Z" fill="white"/>
</g>
<defs>
<clipPath id="clip0">
<rect width="238" height="45" fill="white"/>
</clipPath>
</defs>
</svg>
